<svg xmlns="http://www.w3.org/2000/svg" xmlns:xlink="http://www.w3.org/1999/xlink" version="1.1" data-diagram-type="ACTIVITY" style="width:1229px;height:3464px;background:#FFFFFF;" width="1229px" height="3464px" viewBox="0 0 1229 3464" zoomAndPan="magnify" preserveAspectRatio="none" contentStyleType="text/css"><?plantuml 1.2026.8?><defs/><g font-family="sans-serif" lengthAdjust="spacing"><g class="title" data-source-line="2"><text x="430.986" y="38.518" fill="#000" font-size="22" textLength="365.861" font-weight="700" font-family="Verdana">Agentic Delivery Workflow (ADW)</text></g><ellipse cx="620.636" cy="70.964" rx="10" ry="10" fill="#FFF" style="stroke:#000;stroke-width:1;"/><rect x="450.167" y="90.964" width="340.938" height="87.412" fill="#FFF" style="stroke:#000;stroke-width:1;"/><path d="M508.789,90.964 L508.789,103.032 L498.789,113.032 L450.167,113.032" style="stroke:#000;stroke-width:1;" fill="none"/><text x="453.167" y="106.93" fill="#000" font-size="14" textLength="48.622" font-family="Verdana">Human</text><rect x="460.167" y="130.032" width="320.938" height="36.344" fill="#FFF" style="stroke:#000;stroke-width:1;" rx="12.5" ry="12.5"/><text x="470.167" y="152.86" fill="#000" font-size="12" textLength="300.938" font-family="Verdana">State feature, bugfix, release, incident, or audit intent</text><rect x="351.247" y="188.376" width="550.779" height="443.426" fill="#FFF" style="stroke:#000;stroke-width:1;"/><path d="M436.23,188.376 L436.23,200.444 L426.23,210.444 L351.247,210.444" style="stroke:#000;stroke-width:1;" fill="none"/><text x="354.247" y="204.342" fill="#000" font-size="14" textLength="74.984" font-family="Verdana">ADW Agent</text><rect x="493.905" y="227.444" width="253.462" height="36.344" fill="#FFF" style="stroke:#000;stroke-width:1;" rx="12.5" ry="12.5"/><text x="503.905" y="250.272" fill="#000" font-size="12" textLength="233.462" font-family="Verdana">Load adw-core and the stage-specific skill</text><rect x="438.519" y="283.788" width="364.234" height="36.344" fill="#FFF" style="stroke:#000;stroke-width:1;" rx="12.5" ry="12.5"/><text x="448.519" y="306.616" fill="#000" font-size="12" textLength="344.234" font-family="Verdana">Inspect repository, adapter, manifest, issue/PR, and live state</text><rect x="531.94" y="389.623" width="177.393" height="36.344" fill="#FFF" style="stroke:#000;stroke-width:1;" rx="12.5" ry="12.5"/><text x="541.94" y="412.451" fill="#000" font-size="12" textLength="157.393" font-family="Verdana">Ask for the missing decision</text><polygon points="548.939,340.132,692.334,340.132,704.334,352.132,692.334,364.132,548.939,364.132,536.939,352.132,548.939,340.132" fill="#FFF" style="stroke:#000;stroke-width:1;stroke-linejoin:miter;stroke-miterlimit:10;"/><text x="624.636" y="375.891" fill="#000" font-size="11" textLength="17.083" font-family="Verdana">yes</text><text x="548.939" y="356.4" fill="#000" font-size="11" textLength="143.395" font-family="Verdana">Required value ambiguous?</text><polygon points="620.636,445.967,632.636,457.967,620.636,469.967,608.636,457.967,620.636,445.967" fill="#FFF" style="stroke:#000;stroke-width:1;stroke-linejoin:miter;stroke-miterlimit:10;"/><rect x="371.247" y="539.458" width="498.779" height="36.344" fill="#FFF" style="stroke:#000;stroke-width:1;" rx="12.5" ry="12.5"/><text x="381.247" y="562.286" fill="#000" font-size="12" textLength="478.779" font-family="Verdana">Create or update plan, branch, issue, acceptance criteria, and rollback considerations</text><polygon points="571.659,489.967,669.613,489.967,681.613,501.967,669.613,513.967,571.659,513.967,559.659,501.967,571.659,489.967" fill="#FFF" style="stroke:#000;stroke-width:1;stroke-linejoin:miter;stroke-miterlimit:10;"/><text x="624.636" y="525.726" fill="#000" font-size="11" textLength="17.083" font-family="Verdana">yes</text><text x="571.659" y="506.235" fill="#000" font-size="11" textLength="97.954" font-family="Verdana">Planning required?</text><polygon points="620.636,595.802,632.636,607.802,620.636,619.802,608.636,607.802,620.636,595.802" fill="#FFF" style="stroke:#000;stroke-width:1;stroke-linejoin:miter;stroke-miterlimit:10;"/><rect x="290.998" y="641.802" width="659.277" height="200.1" fill="#FFF" style="stroke:#000;stroke-width:1;"/><path d="M349.62,641.802 L349.62,653.87 L339.62,663.87 L290.998,663.87" style="stroke:#000;stroke-width:1;" fill="none"/><text x="293.998" y="657.768" fill="#000" font-size="14" textLength="48.622" font-family="Verdana">Human</text><rect x="471.951" y="680.87" width="297.37" height="36.344" fill="#FFF" style="stroke:#000;stroke-width:1;" rx="12.5" ry="12.5"/><text x="481.951" y="703.698" fill="#000" font-size="12" textLength="277.37" font-family="Verdana">Approve the implementation path when required</text><rect x="347.426" y="737.214" width="546.42" height="36.344" fill="#FFF" style="stroke:#000;stroke-width:1;" rx="12.5" ry="12.5"/><text x="357.426" y="760.043" fill="#000" font-size="12" textLength="526.42" font-family="Verdana">Explicitly approve the exact PR source branch, target branch, and replacement/deletion effect</text><rect x="300.998" y="793.559" width="639.277" height="36.344" fill="#FFF" style="stroke:#000;stroke-width:1;" rx="12.5" ry="12.5"/><text x="310.998" y="816.387" fill="#000" font-size="12" textLength="619.277" font-family="Verdana">For full rollout, approve the exact adapter-declared promotion and deployment route at this first confirmation</text><rect x="311.215" y="851.903" width="567.487" height="610.296" fill="#FFF" style="stroke:#000;stroke-width:1;"/><path d="M396.199,851.903 L396.199,863.971 L386.199,873.971 L311.215,873.971" style="stroke:#000;stroke-width:1;" fill="none"/><text x="314.215" y="867.869" fill="#000" font-size="14" textLength="74.984" font-family="Verdana">ADW Agent</text><polygon points="548.933,890.971,692.339,890.971,704.339,902.971,692.339,914.971,548.933,914.971,536.933,902.971,548.933,890.971" fill="#FFF" style="stroke:#000;stroke-width:1;stroke-linejoin:miter;stroke-miterlimit:10;"/><text x="548.933" y="907.239" fill="#000" font-size="11" textLength="143.406" font-family="Verdana">Delegated implementation?</text><text x="519.85" y="899.748" fill="#000" font-size="11" textLength="17.083" font-family="Verdana">yes</text><text x="704.339" y="899.748" fill="#000" font-size="11" textLength="29.601" font-family="Verdana">direct</text><rect x="351.658" y="924.971" width="264.214" height="36.344" fill="#FFF" style="stroke:#000;stroke-width:1;" rx="12.5" ry="12.5"/><text x="361.658" y="947.799" fill="#000" font-size="12" textLength="244.214" font-family="Verdana">Prepare backend-neutral delegation packet</text><rect x="331.215" y="981.315" width="305.098" height="36.344" fill="#FFF" style="stroke:#000;stroke-width:1;" rx="12.5" ry="12.5"/><text x="341.215" y="1004.143" fill="#000" font-size="12" textLength="285.098" font-family="Verdana">Receive verifiable branch/commit/PR and evidence</text><rect x="373.318" y="1037.659" width="220.893" height="36.344" fill="#FFF" style="stroke:#000;stroke-width:1;" rx="12.5" ry="12.5"/><text x="383.318" y="1060.487" fill="#000" font-size="12" textLength="200.893" font-family="Verdana">Inspect returned diff independently</text><rect x="656.313" y="924.971" width="202.389" height="36.344" fill="#FFF" style="stroke:#000;stroke-width:1;" rx="12.5" ry="12.5"/><text x="666.313" y="947.799" fill="#000" font-size="12" textLength="182.389" font-family="Verdana">Implement only approved scope</text><polygon points="620.636,1080.003,632.636,1092.003,620.636,1104.003,608.636,1092.003,620.636,1080.003" fill="#FFF" style="stroke:#000;stroke-width:1;stroke-linejoin:miter;stroke-miterlimit:10;"/><rect x="568.492" y="1124.003" width="104.289" height="36.344" fill="#FFF" style="stroke:#000;stroke-width:1;" rx="12.5" ry="12.5"/><text x="578.492" y="1146.831" fill="#000" font-size="12" textLength="84.289" font-family="Verdana">Run adw:check</text><rect x="544.42" y="1180.347" width="152.433" height="36.344" fill="#FFF" style="stroke:#000;stroke-width:1;" rx="12.5" ry="12.5"/><text x="554.42" y="1203.175" fill="#000" font-size="12" textLength="132.433" font-family="Verdana">Run adw:verify:minimal</text><rect x="523.552" y="1286.182" width="194.169" height="36.344" fill="#FFF" style="stroke:#000;stroke-width:1;" rx="12.5" ry="12.5"/><text x="533.552" y="1309.01" fill="#000" font-size="12" textLength="174.169" font-family="Verdana">Report blocked/failed evidence</text><ellipse cx="620.636" cy="1360.854" rx="11" ry="11" fill="none" style="stroke:#000;stroke-width:1;"/><ellipse cx="620.636" cy="1360.854" rx="6" ry="6" fill="#FFF" style="stroke:#000;stroke-width:1;"/><polygon points="542.339,1236.691,698.934,1236.691,710.934,1248.691,698.934,1260.691,542.339,1260.691,530.339,1248.691,542.339,1236.691" fill="#FFF" style="stroke:#000;stroke-width:1;stroke-linejoin:miter;stroke-miterlimit:10;"/><text x="624.636" y="1272.45" fill="#000" font-size="11" textLength="17.083" font-family="Verdana">yes</text><text x="542.339" y="1252.959" fill="#000" font-size="11" textLength="156.595" font-family="Verdana">Manifest invalid or checks fail?</text><rect x="428.403" y="1413.854" width="384.467" height="36.344" fill="#FFF" style="stroke:#000;stroke-width:1;" rx="12.5" ry="12.5"/><text x="438.403" y="1436.682" fill="#000" font-size="12" textLength="364.467" font-family="Verdana">Create or update the linked PR only for the approved exact route</text><rect x="410.813" y="1472.198" width="419.647" height="143.756" fill="#FFF" style="stroke:#000;stroke-width:1;"/><path d="M527.829,1472.198 L527.829,1484.266 L517.829,1494.266 L410.813,1494.266" style="stroke:#000;stroke-width:1;" fill="none"/><text x="413.813" y="1488.164" fill="#000" font-size="14" textLength="107.016" font-family="Verdana">Review Platform</text><rect x="420.813" y="1511.266" width="399.647" height="36.344" fill="#FFF" style="stroke:#000;stroke-width:1;" rx="12.5" ry="12.5"/><text x="430.813" y="1534.094" fill="#000" font-size="12" textLength="379.647" font-family="Verdana">PR links issue, plan, diff, validation evidence, and deployment notes</text><rect x="521.788" y="1567.61" width="197.697" height="36.344" fill="#FFF" style="stroke:#000;stroke-width:1;" rx="12.5" ry="12.5"/><text x="531.788" y="1590.438" fill="#000" font-size="12" textLength="177.697" font-family="Verdana">Review and external checks run</text><rect x="282.486" y="1625.954" width="688.3" height="704.261" fill="#FFF" style="stroke:#000;stroke-width:1;"/><path d="M367.47,1625.954 L367.47,1638.022 L357.47,1648.022 L282.486,1648.022" style="stroke:#000;stroke-width:1;" fill="none"/><text x="285.486" y="1641.92" fill="#000" font-size="14" textLength="74.984" font-family="Verdana">ADW Agent</text><rect x="530.074" y="1714.513" width="181.125" height="36.344" fill="#FFF" style="stroke:#000;stroke-width:1;" rx="12.5" ry="12.5"/><text x="540.074" y="1737.341" fill="#000" font-size="12" textLength="161.125" font-family="Verdana">Stop and report remediation</text><ellipse cx="620.636" cy="1789.185" rx="11" ry="11" fill="none" style="stroke:#000;stroke-width:1;"/><ellipse cx="620.636" cy="1789.185" rx="6" ry="6" fill="#FFF" style="stroke:#000;stroke-width:1;"/><polygon points="589.067,1665.022,652.206,1665.022,664.206,1677.022,652.206,1689.022,589.067,1689.022,577.067,1677.022,589.067,1665.022" fill="#FFF" style="stroke:#000;stroke-width:1;stroke-linejoin:miter;stroke-miterlimit:10;"/><text x="624.636" y="1700.781" fill="#000" font-size="11" textLength="17.083" font-family="Verdana">yes</text><text x="589.067" y="1681.29" fill="#000" font-size="11" textLength="63.14" font-family="Verdana">PR rejected?</text><rect x="448.419" y="1891.676" width="344.434" height="36.344" fill="#FFF" style="stroke:#000;stroke-width:1;" rx="12.5" ry="12.5"/><text x="458.419" y="1914.504" fill="#000" font-size="12" textLength="324.434" font-family="Verdana">Plan/apply preview configuration through canonical tasks</text><rect x="483.315" y="1948.02" width="274.642" height="36.344" fill="#FFF" style="stroke:#000;stroke-width:1;" rx="12.5" ry="12.5"/><text x="493.315" y="1970.848" fill="#000" font-size="12" textLength="254.642" font-family="Verdana">Deploy and inspect canonical status evidence</text><rect x="302.486" y="2004.364" width="636.3" height="36.344" fill="#FFF" style="stroke:#000;stroke-width:1;" rx="12.5" ry="12.5"/><text x="312.486" y="2027.193" fill="#000" font-size="12" textLength="616.3" font-family="Verdana">Run supported health, readiness, and deployment validation; optional E2E only with explicit run authorization</text><polygon points="544.209,1842.185,697.064,1842.185,709.064,1854.185,697.064,1866.185,544.209,1866.185,532.209,1854.185,544.209,1842.185" fill="#FFF" style="stroke:#000;stroke-width:1;stroke-linejoin:miter;stroke-miterlimit:10;"/><text x="624.636" y="1877.944" fill="#000" font-size="11" textLength="17.083" font-family="Verdana">yes</text><text x="544.209" y="1858.453" fill="#000" font-size="11" textLength="152.855" font-family="Verdana">Disposable preview declared?</text><polygon points="620.636,2060.709,632.636,2072.709,620.636,2084.709,608.636,2072.709,620.636,2060.709" fill="#FFF" style="stroke:#000;stroke-width:1;stroke-linejoin:miter;stroke-miterlimit:10;"/><rect x="489.621" y="2104.709" width="262.03" height="36.344" fill="#FFF" style="stroke:#000;stroke-width:1;" rx="12.5" ry="12.5"/><text x="499.621" y="2127.537" fill="#000" font-size="12" textLength="242.03" font-family="Verdana">Run adw:verify:full for release-class targets</text><rect x="518.818" y="2210.544" width="203.637" height="36.344" fill="#FFF" style="stroke:#000;stroke-width:1;" rx="12.5" ry="12.5"/><text x="528.818" y="2233.372" fill="#000" font-size="12" textLength="183.637" font-family="Verdana">Report no-go and remaining risk</text><ellipse cx="620.636" cy="2285.216" rx="11" ry="11" fill="none" style="stroke:#000;stroke-width:1;"/><ellipse cx="620.636" cy="2285.216" rx="6" ry="6" fill="#FFF" style="stroke:#000;stroke-width:1;"/><polygon points="539.319,2161.053,701.953,2161.053,713.953,2173.053,701.953,2185.053,539.319,2185.053,527.319,2173.053,539.319,2161.053" fill="#FFF" style="stroke:#000;stroke-width:1;stroke-linejoin:miter;stroke-miterlimit:10;"/><text x="624.636" y="2196.812" fill="#000" font-size="11" textLength="17.083" font-family="Verdana">yes</text><text x="539.319" y="2177.321" fill="#000" font-size="11" textLength="162.634" font-family="Verdana">Validation incomplete or failed?</text><rect x="11" y="2340.216" width="1203.832" height="305.168" fill="#FFF" style="stroke:#000;stroke-width:1;"/><path d="M95.984,2340.216 L95.984,2352.284 L85.984,2362.284 L11,2362.284" style="stroke:#000;stroke-width:1;" fill="none"/><text x="14" y="2356.182" fill="#000" font-size="14" textLength="74.984" font-family="Verdana">ADW Agent</text><polygon points="536.701,2379.284,704.571,2379.284,716.571,2391.284,704.571,2403.284,536.701,2403.284,524.701,2391.284,536.701,2379.284" fill="#FFF" style="stroke:#000;stroke-width:1;stroke-linejoin:miter;stroke-miterlimit:10;"/><text x="536.701" y="2395.552" fill="#000" font-size="11" textLength="167.87" font-family="Verdana">Exact full-rollout grant still valid?</text><text x="507.619" y="2388.061" fill="#000" font-size="11" textLength="17.083" font-family="Verdana">yes</text><text x="716.571" y="2388.061" fill="#000" font-size="11" textLength="13.453" font-family="Verdana">no</text><rect x="23" y="2413.284" width="595.356" height="36.344" fill="#FFF" style="stroke:#000;stroke-width:1;" rx="12.5" ry="12.5"/><text x="33" y="2436.112" fill="#000" font-size="12" textLength="575.356" font-family="Verdana">Recheck the exact target and every quality/review/preview gate; continue without repeat confirmation</text><rect x="646.004" y="2413.284" width="549.18" height="36.344" fill="#FFF" style="stroke:#000;stroke-width:1;" rx="12.5" ry="12.5"/><text x="656.004" y="2436.112" fill="#000" font-size="12" textLength="529.18" font-family="Verdana">Stop for separate merge and deployment decisions, or renewal of an expired full-rollout grant</text><rect x="638.356" y="2459.628" width="564.476" height="143.756" fill="#FFF" style="stroke:#000;stroke-width:1;"/><path d="M696.978,2459.628 L696.978,2471.696 L686.978,2481.696 L638.356,2481.696" style="stroke:#000;stroke-width:1;" fill="none"/><text x="641.356" y="2475.594" fill="#000" font-size="14" textLength="48.622" font-family="Verdana">Human</text><rect x="748.203" y="2498.696" width="344.782" height="36.344" fill="#FFF" style="stroke:#000;stroke-width:1;" rx="12.5" ry="12.5"/><text x="758.203" y="2521.524" fill="#000" font-size="12" textLength="324.782" font-family="Verdana">For ordinary chains, explicitly approve exact merge target</text><rect x="648.356" y="2555.04" width="544.476" height="36.344" fill="#FFF" style="stroke:#000;stroke-width:1;" rx="12.5" ry="12.5"/><text x="658.356" y="2577.868" fill="#000" font-size="12" textLength="524.476" font-family="Verdana">For ordinary chains, state whether deployment is requested and approve its exact target if so</text><polygon points="620.636,2609.384,632.636,2621.384,620.636,2633.384,608.636,2621.384,620.636,2609.384" fill="#FFF" style="stroke:#000;stroke-width:1;stroke-linejoin:miter;stroke-miterlimit:10;"/><rect x="28.443" y="2655.384" width="948.526" height="752" fill="#FFF" style="stroke:#000;stroke-width:1;"/><path d="M113.426,2655.384 L113.426,2667.452 L103.426,2677.452 L28.443,2677.452" style="stroke:#000;stroke-width:1;" fill="none"/><text x="31.443" y="2671.35" fill="#000" font-size="14" textLength="74.984" font-family="Verdana">ADW Agent</text><rect x="508.156" y="2694.452" width="224.961" height="36.344" fill="#FFF" style="stroke:#000;stroke-width:1;" rx="12.5" ry="12.5"/><text x="518.156" y="2717.28" fill="#000" font-size="12" textLength="204.961" font-family="Verdana">Merge without bypassing protection</text><rect x="537.376" y="2750.796" width="166.521" height="36.344" fill="#FFF" style="stroke:#000;stroke-width:1;" rx="12.5" ry="12.5"/><text x="547.376" y="2773.624" fill="#000" font-size="12" textLength="146.521" font-family="Verdana">Verify destination revision</text><polygon points="534.848,2807.14,706.425,2807.14,718.425,2819.14,706.425,2831.14,534.848,2831.14,522.848,2819.14,534.848,2807.14" fill="#FFF" style="stroke:#000;stroke-width:1;stroke-linejoin:miter;stroke-miterlimit:10;"/><text x="534.848" y="2823.408" fill="#000" font-size="11" textLength="171.577" font-family="Verdana">Deployment explicitly requested?</text><text x="505.765" y="2815.917" fill="#000" font-size="11" textLength="17.083" font-family="Verdana">yes</text><text x="718.425" y="2815.917" fill="#000" font-size="11" textLength="13.453" font-family="Verdana">no</text><rect x="218.298" y="2841.14" width="340.414" height="36.344" fill="#FFF" style="stroke:#000;stroke-width:1;" rx="12.5" ry="12.5"/><text x="228.298" y="2863.968" fill="#000" font-size="12" textLength="320.414" font-family="Verdana">Resolve opaque environment from manifest and adapter</text><rect x="240.096" y="2897.484" width="296.818" height="36.344" fill="#FFF" style="stroke:#000;stroke-width:1;" rx="12.5" ry="12.5"/><text x="250.096" y="2920.312" fill="#000" font-size="12" textLength="276.818" font-family="Verdana">Plan/apply configuration through canonical tasks</text><rect x="283.26" y="2953.828" width="210.489" height="36.344" fill="#FFF" style="stroke:#000;stroke-width:1;" rx="12.5" ry="12.5"/><text x="293.26" y="2976.656" fill="#000" font-size="12" textLength="190.489" font-family="Verdana">Deploy through adw:deploy:apply</text><rect x="48.443" y="3010.172" width="680.125" height="36.344" fill="#FFF" style="stroke:#000;stroke-width:1;" rx="12.5" ry="12.5"/><text x="58.443" y="3033" fill="#000" font-size="12" textLength="660.125" font-family="Verdana">Verify status, identity, health, readiness, and business semantics; run optional E2E only with explicit run authorization</text><rect x="294.21" y="3116.007" width="188.589" height="36.344" fill="#FFF" style="stroke:#000;stroke-width:1;" rx="12.5" ry="12.5"/><text x="304.21" y="3138.836" fill="#000" font-size="12" textLength="168.589" font-family="Verdana">Preserve failed-state evidence</text><rect x="288.756" y="3172.352" width="199.497" height="36.344" fill="#FFF" style="stroke:#000;stroke-width:1;" rx="12.5" ry="12.5"/><text x="298.756" y="3195.18" fill="#000" font-size="12" textLength="179.497" font-family="Verdana">Request exact rollback approval</text><rect x="178.121" y="3228.696" width="420.767" height="36.344" fill="#FFF" style="stroke:#000;stroke-width:1;" rx="12.5" ry="12.5"/><text x="188.121" y="3251.524" fill="#000" font-size="12" textLength="400.767" font-family="Verdana">Use adapter-declared restore strategy and canonical deployment gates</text><polygon points="325.464,3066.517,451.545,3066.517,463.545,3078.517,451.545,3090.517,325.464,3090.517,313.464,3078.517,325.464,3066.517" fill="#FFF" style="stroke:#000;stroke-width:1;stroke-linejoin:miter;stroke-miterlimit:10;"/><text x="392.505" y="3102.275" fill="#000" font-size="11" textLength="17.083" font-family="Verdana">yes</text><text x="325.464" y="3082.784" fill="#000" font-size="11" textLength="126.081" font-family="Verdana">Deployment regression?</text><polygon points="388.505,3285.04,400.505,3297.04,388.505,3309.04,376.505,3297.04,388.505,3285.04" fill="#FFF" style="stroke:#000;stroke-width:1;stroke-linejoin:miter;stroke-miterlimit:10;"/><rect x="748.567" y="2841.14" width="208.401" height="36.344" fill="#FFF" style="stroke:#000;stroke-width:1;" rx="12.5" ry="12.5"/><text x="758.567" y="2863.968" fill="#000" font-size="12" textLength="188.401" font-family="Verdana">Record verified merge-only result</text><polygon points="620.636,3315.04,632.636,3327.04,620.636,3339.04,608.636,3327.04,620.636,3315.04" fill="#FFF" style="stroke:#000;stroke-width:1;stroke-linejoin:miter;stroke-miterlimit:10;"/><rect x="397.383" y="3359.04" width="446.507" height="36.344" fill="#FFF" style="stroke:#000;stroke-width:1;" rx="12.5" ry="12.5"/><text x="407.383" y="3381.868" fill="#000" font-size="12" textLength="426.507" font-family="Verdana">Update issue/PR and report revision, evidence, target, risks, and next action</text><ellipse cx="620.636" cy="3438.384" rx="11" ry="11" fill="none" style="stroke:#000;stroke-width:1;"/><ellipse cx="620.636" cy="3438.384" rx="6" ry="6" fill="#FFF" style="stroke:#000;stroke-width:1;"/><line x1="620.636" y1="80.964" x2="620.636" y2="130.032" style="stroke:#000;stroke-width:1;"/><polygon points="616.636,120.032,620.636,130.032,624.636,120.032,620.636,124.032" fill="#000" style="stroke:#000;stroke-width:1;stroke-linejoin:miter;stroke-miterlimit:10;"/><line x1="620.636" y1="263.788" x2="620.636" y2="283.788" style="stroke:#000;stroke-width:1;"/><polygon points="616.636,273.788,620.636,283.788,624.636,273.788,620.636,277.788" fill="#000" style="stroke:#000;stroke-width:1;stroke-linejoin:miter;stroke-miterlimit:10;"/><line x1="620.636" y1="364.132" x2="620.636" y2="389.623" style="stroke:#000;stroke-width:1;"/><polygon points="616.636,379.623,620.636,389.623,624.636,379.623,620.636,383.623" fill="#000" style="stroke:#000;stroke-width:1;stroke-linejoin:miter;stroke-miterlimit:10;"/><line x1="704.334" y1="352.132" x2="719.333" y2="352.132" style="stroke:#000;stroke-width:1;"/><polygon points="715.333,397.795,719.333,407.795,723.333,397.795,719.333,401.795" fill="#000" style="stroke:#000;stroke-width:1;stroke-linejoin:miter;stroke-miterlimit:10;"/><line x1="719.333" y1="352.132" x2="719.333" y2="457.967" style="stroke:#000;stroke-width:1;"/><line x1="719.333" y1="457.967" x2="632.636" y2="457.967" style="stroke:#000;stroke-width:1;"/><polygon points="642.636,453.967,632.636,457.967,642.636,461.967,638.636,457.967" fill="#000" style="stroke:#000;stroke-width:1;stroke-linejoin:miter;stroke-miterlimit:10;"/><line x1="620.636" y1="425.967" x2="620.636" y2="445.967" style="stroke:#000;stroke-width:1;"/><polygon points="616.636,435.967,620.636,445.967,624.636,435.967,620.636,439.967" fill="#000" style="stroke:#000;stroke-width:1;stroke-linejoin:miter;stroke-miterlimit:10;"/><line x1="620.636" y1="320.132" x2="620.636" y2="340.132" style="stroke:#000;stroke-width:1;"/><polygon points="616.636,330.132,620.636,340.132,624.636,330.132,620.636,334.132" fill="#000" style="stroke:#000;stroke-width:1;stroke-linejoin:miter;stroke-miterlimit:10;"/><line x1="620.636" y1="513.967" x2="620.636" y2="539.458" style="stroke:#000;stroke-width:1;"/><polygon points="616.636,529.458,620.636,539.458,624.636,529.458,620.636,533.458" fill="#000" style="stroke:#000;stroke-width:1;stroke-linejoin:miter;stroke-miterlimit:10;"/><line x1="681.613" y1="501.967" x2="880.026" y2="501.967" style="stroke:#000;stroke-width:1;"/><polygon points="876.026,547.63,880.026,557.63,884.026,547.63,880.026,551.63" fill="#000" style="stroke:#000;stroke-width:1;stroke-linejoin:miter;stroke-miterlimit:10;"/><line x1="880.026" y1="501.967" x2="880.026" y2="607.802" style="stroke:#000;stroke-width:1;"/><line x1="880.026" y1="607.802" x2="632.636" y2="607.802" style="stroke:#000;stroke-width:1;"/><polygon points="642.636,603.802,632.636,607.802,642.636,611.802,638.636,607.802" fill="#000" style="stroke:#000;stroke-width:1;stroke-linejoin:miter;stroke-miterlimit:10;"/><line x1="620.636" y1="575.802" x2="620.636" y2="595.802" style="stroke:#000;stroke-width:1;"/><polygon points="616.636,585.802,620.636,595.802,624.636,585.802,620.636,589.802" fill="#000" style="stroke:#000;stroke-width:1;stroke-linejoin:miter;stroke-miterlimit:10;"/><line x1="620.636" y1="469.967" x2="620.636" y2="489.967" style="stroke:#000;stroke-width:1;"/><polygon points="616.636,479.967,620.636,489.967,624.636,479.967,620.636,483.967" fill="#000" style="stroke:#000;stroke-width:1;stroke-linejoin:miter;stroke-miterlimit:10;"/><line x1="620.636" y1="166.376" x2="620.636" y2="227.444" style="stroke:#000;stroke-width:1;"/><polygon points="616.636,217.444,620.636,227.444,624.636,217.444,620.636,221.444" fill="#000" style="stroke:#000;stroke-width:1;stroke-linejoin:miter;stroke-miterlimit:10;"/><line x1="620.636" y1="717.214" x2="620.636" y2="737.214" style="stroke:#000;stroke-width:1;"/><polygon points="616.636,727.214,620.636,737.214,624.636,727.214,620.636,731.214" fill="#000" style="stroke:#000;stroke-width:1;stroke-linejoin:miter;stroke-miterlimit:10;"/><line x1="620.636" y1="773.559" x2="620.636" y2="793.559" style="stroke:#000;stroke-width:1;"/><polygon points="616.636,783.559,620.636,793.559,624.636,783.559,620.636,787.559" fill="#000" style="stroke:#000;stroke-width:1;stroke-linejoin:miter;stroke-miterlimit:10;"/><line x1="620.636" y1="619.802" x2="620.636" y2="680.87" style="stroke:#000;stroke-width:1;"/><polygon points="616.636,670.87,620.636,680.87,624.636,670.87,620.636,674.87" fill="#000" style="stroke:#000;stroke-width:1;stroke-linejoin:miter;stroke-miterlimit:10;"/><line x1="483.764" y1="961.315" x2="483.764" y2="981.315" style="stroke:#000;stroke-width:1;"/><polygon points="479.764,971.315,483.764,981.315,487.764,971.315,483.764,975.315" fill="#000" style="stroke:#000;stroke-width:1;stroke-linejoin:miter;stroke-miterlimit:10;"/><line x1="483.764" y1="1017.659" x2="483.764" y2="1037.659" style="stroke:#000;stroke-width:1;"/><polygon points="479.764,1027.659,483.764,1037.659,487.764,1027.659,483.764,1031.659" fill="#000" style="stroke:#000;stroke-width:1;stroke-linejoin:miter;stroke-miterlimit:10;"/><line x1="536.933" y1="902.971" x2="483.764" y2="902.971" style="stroke:#000;stroke-width:1;"/><line x1="483.764" y1="902.971" x2="483.764" y2="924.971" style="stroke:#000;stroke-width:1;"/><polygon points="479.764,914.971,483.764,924.971,487.764,914.971,483.764,918.971" fill="#000" style="stroke:#000;stroke-width:1;stroke-linejoin:miter;stroke-miterlimit:10;"/><line x1="704.339" y1="902.971" x2="757.508" y2="902.971" style="stroke:#000;stroke-width:1;"/><line x1="757.508" y1="902.971" x2="757.508" y2="924.971" style="stroke:#000;stroke-width:1;"/><polygon points="753.508,914.971,757.508,924.971,761.508,914.971,757.508,918.971" fill="#000" style="stroke:#000;stroke-width:1;stroke-linejoin:miter;stroke-miterlimit:10;"/><line x1="483.764" y1="1074.003" x2="483.764" y2="1092.003" style="stroke:#000;stroke-width:1;"/><line x1="483.764" y1="1092.003" x2="608.636" y2="1092.003" style="stroke:#000;stroke-width:1;"/><polygon points="598.636,1088.003,608.636,1092.003,598.636,1096.003,602.636,1092.003" fill="#000" style="stroke:#000;stroke-width:1;stroke-linejoin:miter;stroke-miterlimit:10;"/><line x1="757.508" y1="961.315" x2="757.508" y2="1092.003" style="stroke:#000;stroke-width:1;"/><line x1="757.508" y1="1092.003" x2="632.636" y2="1092.003" style="stroke:#000;stroke-width:1;"/><polygon points="642.636,1088.003,632.636,1092.003,642.636,1096.003,638.636,1092.003" fill="#000" style="stroke:#000;stroke-width:1;stroke-linejoin:miter;stroke-miterlimit:10;"/><line x1="620.636" y1="1104.003" x2="620.636" y2="1124.003" style="stroke:#000;stroke-width:1;"/><polygon points="616.636,1114.003,620.636,1124.003,624.636,1114.003,620.636,1118.003" fill="#000" style="stroke:#000;stroke-width:1;stroke-linejoin:miter;stroke-miterlimit:10;"/><line x1="620.636" y1="1160.347" x2="620.636" y2="1180.347" style="stroke:#000;stroke-width:1;"/><polygon points="616.636,1170.347,620.636,1180.347,624.636,1170.347,620.636,1174.347" fill="#000" style="stroke:#000;stroke-width:1;stroke-linejoin:miter;stroke-miterlimit:10;"/><line x1="620.636" y1="1322.526" x2="620.636" y2="1349.854" style="stroke:#000;stroke-width:1;"/><polygon points="616.636,1339.854,620.636,1349.854,624.636,1339.854,620.636,1343.854" fill="#000" style="stroke:#000;stroke-width:1;stroke-linejoin:miter;stroke-miterlimit:10;"/><line x1="620.636" y1="1260.691" x2="620.636" y2="1286.182" style="stroke:#000;stroke-width:1;"/><polygon points="616.636,1276.182,620.636,1286.182,624.636,1276.182,620.636,1280.182" fill="#000" style="stroke:#000;stroke-width:1;stroke-linejoin:miter;stroke-miterlimit:10;"/><line x1="710.934" y1="1248.691" x2="727.721" y2="1248.691" style="stroke:#000;stroke-width:1;"/><polygon points="723.721,1319.854,727.721,1329.854,731.721,1319.854,727.721,1323.854" fill="#000" style="stroke:#000;stroke-width:1;stroke-linejoin:miter;stroke-miterlimit:10;"/><line x1="727.721" y1="1248.691" x2="727.721" y2="1393.854" style="stroke:#000;stroke-width:1;"/><line x1="727.721" y1="1393.854" x2="620.636" y2="1393.854" style="stroke:#000;stroke-width:1;"/><line x1="620.636" y1="1393.854" x2="620.636" y2="1413.854" style="stroke:#000;stroke-width:1;"/><polygon points="616.636,1403.854,620.636,1413.854,624.636,1403.854,620.636,1407.854" fill="#000" style="stroke:#000;stroke-width:1;stroke-linejoin:miter;stroke-miterlimit:10;"/><line x1="620.636" y1="1216.691" x2="620.636" y2="1236.691" style="stroke:#000;stroke-width:1;"/><polygon points="616.636,1226.691,620.636,1236.691,624.636,1226.691,620.636,1230.691" fill="#000" style="stroke:#000;stroke-width:1;stroke-linejoin:miter;stroke-miterlimit:10;"/><line x1="620.636" y1="829.903" x2="620.636" y2="890.971" style="stroke:#000;stroke-width:1;"/><polygon points="616.636,880.971,620.636,890.971,624.636,880.971,620.636,884.971" fill="#000" style="stroke:#000;stroke-width:1;stroke-linejoin:miter;stroke-miterlimit:10;"/><line x1="620.636" y1="1547.61" x2="620.636" y2="1567.61" style="stroke:#000;stroke-width:1;"/><polygon points="616.636,1557.61,620.636,1567.61,624.636,1557.61,620.636,1561.61" fill="#000" style="stroke:#000;stroke-width:1;stroke-linejoin:miter;stroke-miterlimit:10;"/><line x1="620.636" y1="1450.198" x2="620.636" y2="1511.266" style="stroke:#000;stroke-width:1;"/><polygon points="616.636,1501.266,620.636,1511.266,624.636,1501.266,620.636,1505.266" fill="#000" style="stroke:#000;stroke-width:1;stroke-linejoin:miter;stroke-miterlimit:10;"/><line x1="620.636" y1="1750.857" x2="620.636" y2="1778.185" style="stroke:#000;stroke-width:1;"/><polygon points="616.636,1768.185,620.636,1778.185,624.636,1768.185,620.636,1772.185" fill="#000" style="stroke:#000;stroke-width:1;stroke-linejoin:miter;stroke-miterlimit:10;"/><line x1="620.636" y1="1689.022" x2="620.636" y2="1714.513" style="stroke:#000;stroke-width:1;"/><polygon points="616.636,1704.513,620.636,1714.513,624.636,1704.513,620.636,1708.513" fill="#000" style="stroke:#000;stroke-width:1;stroke-linejoin:miter;stroke-miterlimit:10;"/><line x1="664.206" y1="1677.022" x2="721.199" y2="1677.022" style="stroke:#000;stroke-width:1;"/><polygon points="717.199,1748.185,721.199,1758.185,725.199,1748.185,721.199,1752.185" fill="#000" style="stroke:#000;stroke-width:1;stroke-linejoin:miter;stroke-miterlimit:10;"/><line x1="721.199" y1="1677.022" x2="721.199" y2="1822.185" style="stroke:#000;stroke-width:1;"/><line x1="721.199" y1="1822.185" x2="620.636" y2="1822.185" style="stroke:#000;stroke-width:1;"/><line x1="620.636" y1="1822.185" x2="620.636" y2="1842.185" style="stroke:#000;stroke-width:1;"/><polygon points="616.636,1832.185,620.636,1842.185,624.636,1832.185,620.636,1836.185" fill="#000" style="stroke:#000;stroke-width:1;stroke-linejoin:miter;stroke-miterlimit:10;"/><line x1="620.636" y1="1928.02" x2="620.636" y2="1948.02" style="stroke:#000;stroke-width:1;"/><polygon points="616.636,1938.02,620.636,1948.02,624.636,1938.02,620.636,1942.02" fill="#000" style="stroke:#000;stroke-width:1;stroke-linejoin:miter;stroke-miterlimit:10;"/><line x1="620.636" y1="1984.364" x2="620.636" y2="2004.364" style="stroke:#000;stroke-width:1;"/><polygon points="616.636,1994.364,620.636,2004.364,624.636,1994.364,620.636,1998.364" fill="#000" style="stroke:#000;stroke-width:1;stroke-linejoin:miter;stroke-miterlimit:10;"/><line x1="620.636" y1="1866.185" x2="620.636" y2="1891.676" style="stroke:#000;stroke-width:1;"/><polygon points="616.636,1881.676,620.636,1891.676,624.636,1881.676,620.636,1885.676" fill="#000" style="stroke:#000;stroke-width:1;stroke-linejoin:miter;stroke-miterlimit:10;"/><line x1="709.064" y1="1854.185" x2="948.786" y2="1854.185" style="stroke:#000;stroke-width:1;"/><polygon points="944.786,1956.192,948.786,1966.192,952.786,1956.192,948.786,1960.192" fill="#000" style="stroke:#000;stroke-width:1;stroke-linejoin:miter;stroke-miterlimit:10;"/><line x1="948.786" y1="1854.185" x2="948.786" y2="2072.709" style="stroke:#000;stroke-width:1;"/><line x1="948.786" y1="2072.709" x2="632.636" y2="2072.709" style="stroke:#000;stroke-width:1;"/><polygon points="642.636,2068.709,632.636,2072.709,642.636,2076.709,638.636,2072.709" fill="#000" style="stroke:#000;stroke-width:1;stroke-linejoin:miter;stroke-miterlimit:10;"/><line x1="620.636" y1="2040.709" x2="620.636" y2="2060.709" style="stroke:#000;stroke-width:1;"/><polygon points="616.636,2050.709,620.636,2060.709,624.636,2050.709,620.636,2054.709" fill="#000" style="stroke:#000;stroke-width:1;stroke-linejoin:miter;stroke-miterlimit:10;"/><line x1="620.636" y1="2084.709" x2="620.636" y2="2104.709" style="stroke:#000;stroke-width:1;"/><polygon points="616.636,2094.709,620.636,2104.709,624.636,2094.709,620.636,2098.709" fill="#000" style="stroke:#000;stroke-width:1;stroke-linejoin:miter;stroke-miterlimit:10;"/><line x1="620.636" y1="2246.888" x2="620.636" y2="2274.216" style="stroke:#000;stroke-width:1;"/><polygon points="616.636,2264.216,620.636,2274.216,624.636,2264.216,620.636,2268.216" fill="#000" style="stroke:#000;stroke-width:1;stroke-linejoin:miter;stroke-miterlimit:10;"/><line x1="620.636" y1="2185.053" x2="620.636" y2="2210.544" style="stroke:#000;stroke-width:1;"/><polygon points="616.636,2200.544,620.636,2210.544,624.636,2200.544,620.636,2204.544" fill="#000" style="stroke:#000;stroke-width:1;stroke-linejoin:miter;stroke-miterlimit:10;"/><line x1="713.953" y1="2173.053" x2="732.455" y2="2173.053" style="stroke:#000;stroke-width:1;"/><polygon points="728.455,2244.216,732.455,2254.216,736.455,2244.216,732.455,2248.216" fill="#000" style="stroke:#000;stroke-width:1;stroke-linejoin:miter;stroke-miterlimit:10;"/><line x1="732.455" y1="2173.053" x2="732.455" y2="2318.216" style="stroke:#000;stroke-width:1;"/><line x1="732.455" y1="2318.216" x2="620.636" y2="2318.216" style="stroke:#000;stroke-width:1;"/><line x1="620.636" y1="2318.216" x2="620.636" y2="2379.284" style="stroke:#000;stroke-width:1;"/><polygon points="616.636,2369.284,620.636,2379.284,624.636,2369.284,620.636,2373.284" fill="#000" style="stroke:#000;stroke-width:1;stroke-linejoin:miter;stroke-miterlimit:10;"/><line x1="620.636" y1="2141.053" x2="620.636" y2="2161.053" style="stroke:#000;stroke-width:1;"/><polygon points="616.636,2151.053,620.636,2161.053,624.636,2151.053,620.636,2155.053" fill="#000" style="stroke:#000;stroke-width:1;stroke-linejoin:miter;stroke-miterlimit:10;"/><line x1="620.636" y1="1603.954" x2="620.636" y2="1665.022" style="stroke:#000;stroke-width:1;"/><polygon points="616.636,1655.022,620.636,1665.022,624.636,1655.022,620.636,1659.022" fill="#000" style="stroke:#000;stroke-width:1;stroke-linejoin:miter;stroke-miterlimit:10;"/><line x1="920.594" y1="2535.04" x2="920.594" y2="2555.04" style="stroke:#000;stroke-width:1;"/><polygon points="916.594,2545.04,920.594,2555.04,924.594,2545.04,920.594,2549.04" fill="#000" style="stroke:#000;stroke-width:1;stroke-linejoin:miter;stroke-miterlimit:10;"/><line x1="920.594" y1="2449.628" x2="920.594" y2="2498.696" style="stroke:#000;stroke-width:1;"/><polygon points="916.594,2488.696,920.594,2498.696,924.594,2488.696,920.594,2492.696" fill="#000" style="stroke:#000;stroke-width:1;stroke-linejoin:miter;stroke-miterlimit:10;"/><line x1="524.701" y1="2391.284" x2="320.678" y2="2391.284" style="stroke:#000;stroke-width:1;"/><line x1="320.678" y1="2391.284" x2="320.678" y2="2413.284" style="stroke:#000;stroke-width:1;"/><polygon points="316.678,2403.284,320.678,2413.284,324.678,2403.284,320.678,2407.284" fill="#000" style="stroke:#000;stroke-width:1;stroke-linejoin:miter;stroke-miterlimit:10;"/><line x1="716.571" y1="2391.284" x2="920.594" y2="2391.284" style="stroke:#000;stroke-width:1;"/><line x1="920.594" y1="2391.284" x2="920.594" y2="2413.284" style="stroke:#000;stroke-width:1;"/><polygon points="916.594,2403.284,920.594,2413.284,924.594,2403.284,920.594,2407.284" fill="#000" style="stroke:#000;stroke-width:1;stroke-linejoin:miter;stroke-miterlimit:10;"/><line x1="320.678" y1="2449.628" x2="320.678" y2="2621.384" style="stroke:#000;stroke-width:1;"/><line x1="320.678" y1="2621.384" x2="608.636" y2="2621.384" style="stroke:#000;stroke-width:1;"/><polygon points="598.636,2617.384,608.636,2621.384,598.636,2625.384,602.636,2621.384" fill="#000" style="stroke:#000;stroke-width:1;stroke-linejoin:miter;stroke-miterlimit:10;"/><line x1="920.594" y1="2591.384" x2="920.594" y2="2621.384" style="stroke:#000;stroke-width:1;"/><line x1="920.594" y1="2621.384" x2="632.636" y2="2621.384" style="stroke:#000;stroke-width:1;"/><polygon points="642.636,2617.384,632.636,2621.384,642.636,2625.384,638.636,2621.384" fill="#000" style="stroke:#000;stroke-width:1;stroke-linejoin:miter;stroke-miterlimit:10;"/><line x1="620.636" y1="2730.796" x2="620.636" y2="2750.796" style="stroke:#000;stroke-width:1;"/><polygon points="616.636,2740.796,620.636,2750.796,624.636,2740.796,620.636,2744.796" fill="#000" style="stroke:#000;stroke-width:1;stroke-linejoin:miter;stroke-miterlimit:10;"/><line x1="388.505" y1="2877.484" x2="388.505" y2="2897.484" style="stroke:#000;stroke-width:1;"/><polygon points="384.505,2887.484,388.505,2897.484,392.505,2887.484,388.505,2891.484" fill="#000" style="stroke:#000;stroke-width:1;stroke-linejoin:miter;stroke-miterlimit:10;"/><line x1="388.505" y1="2933.828" x2="388.505" y2="2953.828" style="stroke:#000;stroke-width:1;"/><polygon points="384.505,2943.828,388.505,2953.828,392.505,2943.828,388.505,2947.828" fill="#000" style="stroke:#000;stroke-width:1;stroke-linejoin:miter;stroke-miterlimit:10;"/><line x1="388.505" y1="2990.172" x2="388.505" y2="3010.172" style="stroke:#000;stroke-width:1;"/><polygon points="384.505,3000.172,388.505,3010.172,392.505,3000.172,388.505,3004.172" fill="#000" style="stroke:#000;stroke-width:1;stroke-linejoin:miter;stroke-miterlimit:10;"/><line x1="388.505" y1="3152.352" x2="388.505" y2="3172.352" style="stroke:#000;stroke-width:1;"/><polygon points="384.505,3162.352,388.505,3172.352,392.505,3162.352,388.505,3166.352" fill="#000" style="stroke:#000;stroke-width:1;stroke-linejoin:miter;stroke-miterlimit:10;"/><line x1="388.505" y1="3208.696" x2="388.505" y2="3228.696" style="stroke:#000;stroke-width:1;"/><polygon points="384.505,3218.696,388.505,3228.696,392.505,3218.696,388.505,3222.696" fill="#000" style="stroke:#000;stroke-width:1;stroke-linejoin:miter;stroke-miterlimit:10;"/><line x1="388.505" y1="3090.517" x2="388.505" y2="3116.007" style="stroke:#000;stroke-width:1;"/><polygon points="384.505,3106.007,388.505,3116.007,392.505,3106.007,388.505,3110.007" fill="#000" style="stroke:#000;stroke-width:1;stroke-linejoin:miter;stroke-miterlimit:10;"/><line x1="463.545" y1="3078.517" x2="608.888" y2="3078.517" style="stroke:#000;stroke-width:1;"/><polygon points="604.888,3180.524,608.888,3190.524,612.888,3180.524,608.888,3184.524" fill="#000" style="stroke:#000;stroke-width:1;stroke-linejoin:miter;stroke-miterlimit:10;"/><line x1="608.888" y1="3078.517" x2="608.888" y2="3297.04" style="stroke:#000;stroke-width:1;"/><line x1="608.888" y1="3297.04" x2="400.505" y2="3297.04" style="stroke:#000;stroke-width:1;"/><polygon points="410.505,3293.04,400.505,3297.04,410.505,3301.04,406.505,3297.04" fill="#000" style="stroke:#000;stroke-width:1;stroke-linejoin:miter;stroke-miterlimit:10;"/><line x1="388.505" y1="3265.04" x2="388.505" y2="3285.04" style="stroke:#000;stroke-width:1;"/><polygon points="384.505,3275.04,388.505,3285.04,392.505,3275.04,388.505,3279.04" fill="#000" style="stroke:#000;stroke-width:1;stroke-linejoin:miter;stroke-miterlimit:10;"/><line x1="388.505" y1="3046.517" x2="388.505" y2="3066.517" style="stroke:#000;stroke-width:1;"/><polygon points="384.505,3056.517,388.505,3066.517,392.505,3056.517,388.505,3060.517" fill="#000" style="stroke:#000;stroke-width:1;stroke-linejoin:miter;stroke-miterlimit:10;"/><line x1="522.848" y1="2819.14" x2="388.505" y2="2819.14" style="stroke:#000;stroke-width:1;"/><line x1="388.505" y1="2819.14" x2="388.505" y2="2841.14" style="stroke:#000;stroke-width:1;"/><polygon points="384.505,2831.14,388.505,2841.14,392.505,2831.14,388.505,2835.14" fill="#000" style="stroke:#000;stroke-width:1;stroke-linejoin:miter;stroke-miterlimit:10;"/><line x1="718.425" y1="2819.14" x2="852.768" y2="2819.14" style="stroke:#000;stroke-width:1;"/><line x1="852.768" y1="2819.14" x2="852.768" y2="2841.14" style="stroke:#000;stroke-width:1;"/><polygon points="848.768,2831.14,852.768,2841.14,856.768,2831.14,852.768,2835.14" fill="#000" style="stroke:#000;stroke-width:1;stroke-linejoin:miter;stroke-miterlimit:10;"/><line x1="388.505" y1="3309.04" x2="388.505" y2="3327.04" style="stroke:#000;stroke-width:1;"/><line x1="388.505" y1="3327.04" x2="608.636" y2="3327.04" style="stroke:#000;stroke-width:1;"/><polygon points="598.636,3323.04,608.636,3327.04,598.636,3331.04,602.636,3327.04" fill="#000" style="stroke:#000;stroke-width:1;stroke-linejoin:miter;stroke-miterlimit:10;"/><line x1="852.768" y1="2877.484" x2="852.768" y2="3327.04" style="stroke:#000;stroke-width:1;"/><line x1="852.768" y1="3327.04" x2="632.636" y2="3327.04" style="stroke:#000;stroke-width:1;"/><polygon points="642.636,3323.04,632.636,3327.04,642.636,3331.04,638.636,3327.04" fill="#000" style="stroke:#000;stroke-width:1;stroke-linejoin:miter;stroke-miterlimit:10;"/><line x1="620.636" y1="2787.14" x2="620.636" y2="2807.14" style="stroke:#000;stroke-width:1;"/><polygon points="616.636,2797.14,620.636,2807.14,624.636,2797.14,620.636,2801.14" fill="#000" style="stroke:#000;stroke-width:1;stroke-linejoin:miter;stroke-miterlimit:10;"/><line x1="620.636" y1="3339.04" x2="620.636" y2="3359.04" style="stroke:#000;stroke-width:1;"/><polygon points="616.636,3349.04,620.636,3359.04,624.636,3349.04,620.636,3353.04" fill="#000" style="stroke:#000;stroke-width:1;stroke-linejoin:miter;stroke-miterlimit:10;"/><line x1="620.636" y1="2633.384" x2="620.636" y2="2694.452" style="stroke:#000;stroke-width:1;"/><polygon points="616.636,2684.452,620.636,2694.452,624.636,2684.452,620.636,2688.452" fill="#000" style="stroke:#000;stroke-width:1;stroke-linejoin:miter;stroke-miterlimit:10;"/><line x1="620.636" y1="3395.384" x2="620.636" y2="3427.384" style="stroke:#000;stroke-width:1;"/><polygon points="616.636,3417.384,620.636,3427.384,624.636,3417.384,620.636,3421.384" fill="#000" style="stroke:#000;stroke-width:1;stroke-linejoin:miter;stroke-miterlimit:10;"/><?plantuml-src dLPDRnit4BthLx0vsO040JbAXyAeNJH00XWAafoftTaLAowvuOTbjV1_xnkIAwsbTHFa4jiRSkRDcpTl-5lOKKUYrrAPML11axXhoGHLYNlIwedSKNopRjzeUn0tT_VVRcSp7wGBircFVrLGreY_OYUD-7ScnEfpa854Gp94HtEnZMsZdkV2aIRfyK6PIjM8FnVM2Hbh5V0fuCDwzZ8E-GwfCf9tEV17AsiXwyEYiew4DBK0SW4eBIryJvLg0DdlbTPhFlx1yCU0nBtrAbXtdEEsx0EvkG1QrP072ELzfENZPfuYShqSCX37K8susT3tg1pLuadgYBJTLhNHHl_xBQStukP8_XPdaV7ExqM3eXXMXxZAjA86BezoE1oPMZKbxAEMnl01L-9FnFl34LE9YB6l-JVqo81H9qsrAyW1kwge3_X4ed8ArIcPQt5MwwsizgAoneDo9vbNVqRoyaO7x_hUMV30TQYkrv272Ucow6NOYGFZ770dhX-UUwqgQESevEWoFKiqu74Zl8qE-0RaK4zBuVHd0aiehagPbZMaah9Hqw23ASEVOA69MgUgR4JZhXELxYx0kPRSCXpeR8h4AMgai4VEW20HTCg0oygBHZaVc2NyqgKwVo15RY1cWreqfRwWQAAFZoWEU0Gt0yml3CNWf1Pr3f5vnN-bId5-GnMn3Z5wqBJSwe6vPMMxJWMeDHL4Jpn85PLhPy5ZyWo0eSSDPWjr8olmwMFglVOaRchqhWe5u8UX0c7DkOMry9NjQQpSrIOQ7i5LjQDglnv_IM2FgquPrKazJC-dCcU0WVbHDOivtGNhKka9iZOOLmTjQ0j6wYMVeijIVR3z6DNLeB0cj388mEfBHGs3UIekQoOfuRBT6wIZWy2C1bphYlyW4iVqm-3bQMIIvo8LbrivG9rVYixOG3vpbkEd7Zv3iGPYAAou-3FY0nH7VwE1axxn6VGCGyLSElIsLaNO4_mbEIiFcqnQwrs6DupHbA9H-X9CWjVXT1gVDcQJmGKGs-v49Oqrga9zGVgzBqgzJwGaYAg8zdoGtJVwIt6pp7pikHxqRaTIXnql5LahGzvVaNrko5hOddyYzCFxXoo6WuADKJ4jvXoBAEoiK_-SMBgIV15uCY4MKrbe2v3aVR4qF-Z-wraFs7UMvoiBDElvRTqRksXjQLw7ZPnMXFBxYSRzK2KFIU4CU55SKxJmaO0mM9APeaaaIOiZOor-dJs7tmFV8-w6upBtVZbeWFrmpKe8oc1NCikS53B4V5uOx614nevLoyHwTakUuewGzhAnmqBrwVtWoD01dRKDpd57qwg-BZdJDxNjKcxUBjP1IXB5LJlmZl1qlTGo7HbN9cNzlo7IIuBt9RXquogmTNY1mXa1boiSCgZWNvEEHdgRixpyNEjNdnA-WVtjiPVvBO8C0RDMw5zzJO86AiZ1PAro7uVNIbvo9yGZDax89yNZhKOTjfSu1BXFobcJ8ZJOngU7LouwB-prbQdyWfaCXtXKCz6h5AkSAiLcSy7RYVSX53n_oqgsqQU_e4P0ncFOhvDF_9ANN97fg7K8FlbSo0y6JmuiPhTOP1czTiJ4TUh3QPELvrwMKjx1wTmNpDdLsmWf0h-ZVU1PQxCRdnaUQPMdkf0zcEB5wC8n8FtoNa7iD22Bn0xIH1rU6UgNlAE7X_VhJPNrDnzjqJm7y-I2fJa6MnFltjDBZMtnFm00?></g></svg>